<?xml version="1.0" encoding="UTF-8" standalone="no"?>
<svg
   xmlns:dc="http://purl.org/dc/elements/1.1/"
   xmlns:cc="http://creativecommons.org/ns#"
   xmlns:rdf="http://www.w3.org/1999/02/22-rdf-syntax-ns#"
   xmlns:svg="http://www.w3.org/2000/svg"
   xmlns="http://www.w3.org/2000/svg"
   xmlns:sodipodi="http://sodipodi.sourceforge.net/DTD/sodipodi-0.dtd"
   xmlns:inkscape="http://www.inkscape.org/namespaces/inkscape"
   sodipodi:docname="margatsni.svg"
   inkscape:version="1.0 (4035a4fb49, 2020-05-01)"
   id="svg8"
   version="1.1"
   viewBox="0 0 112.25851 37.000351"
   height="37.000351mm"
   width="112.25851mm">
  <defs
     id="defs2" />
  <sodipodi:namedview
     fit-margin-bottom="0"
     fit-margin-right="0"
     fit-margin-left="0"
     fit-margin-top="0"
     inkscape:window-maximized="1"
     inkscape:window-y="0"
     inkscape:window-x="0"
     inkscape:window-height="733"
     inkscape:window-width="1362"
     showgrid="false"
     inkscape:document-rotation="0"
     inkscape:current-layer="layer1"
     inkscape:document-units="mm"
     inkscape:cy="65.960881"
     inkscape:cx="240.18468"
     inkscape:zoom="1.4"
     inkscape:pageshadow="2"
     inkscape:pageopacity="0.0"
     borderopacity="1.0"
     bordercolor="#666666"
     pagecolor="#ffffff"
     id="base" />
  <metadata
     id="metadata5">
    <rdf:RDF>
      <cc:Work
         rdf:about="">
        <dc:format>image/svg+xml</dc:format>
        <dc:type
           rdf:resource="http://purl.org/dc/dcmitype/StillImage" />
        <dc:title></dc:title>
      </cc:Work>
    </rdf:RDF>
  </metadata>
  <g
     transform="translate(-57.380814,-88.20254)"
     id="layer1"
     inkscape:groupmode="layer"
     inkscape:label="Layer 1">
    <g
       style="font-size:35.2778px;line-height:1.25;font-family:Billabong;-inkscape-font-specification:Billabong;letter-spacing:0px;word-spacing:0px;stroke-width:0.264583"
       id="text20"
       aria-label="Margatsni">
      <path
         id="path22"
         style="font-size:35.2778px;opacity:1;stroke-width:0.264583"
         d="m 85.923447,109.14874 c 0,-0.12058 -0.01722,-0.18949 -0.0689,-0.24116 -0.292833,0.49954 -0.53399,0.63734 -0.930176,0.63734 -1.515843,0 -2.118735,-3.84128 -2.118735,-5.75331 0,-9.318992 1.102431,-11.678884 1.102431,-12.023393 0,-0.602892 -1.515843,-3.462324 -2.583823,-3.462324 -2.583824,0 -4.564755,16.829307 -5.391578,16.829307 -0.206706,0 -0.241157,-3.84129 -0.241157,-5.718866 v -6.028921 c 0,-0.947402 -1.808676,-2.049834 -2.583823,-2.049834 -0.206706,0 -1.016304,0.03445 -1.119657,0.465089 -0.499539,1.550294 -1.050755,3.634578 -1.41249,5.322676 -0.740696,3.066136 -1.240236,4.719786 -1.739775,7.062446 -0.08613,-3.96186 -0.05168,-9.784073 -1.016304,-12.81576 -0.413411,-1.343588 -1.670872,-3.16949 -3.203941,-3.16949 -5.374352,0 -7.234705,6.270078 -7.234705,9.766853 0,2.049837 0.602892,6.321757 4.340823,6.321757 0.258383,0 1.653647,-0.12058 1.653647,-0.99908 0,-0.70625 -1.205784,-0.8096 -1.446941,-0.8096 -0.137804,0 -0.809598,0.0689 -0.8785,0.0689 -1.843127,0 -1.980931,-3.135036 -1.980931,-3.979085 0,-2.756078 1.481392,-8.216558 4.616431,-8.216558 2.342667,0 2.44602,5.64996 2.44602,6.700715 0,3.737928 -0.172255,11.713328 -0.172255,12.867438 0,0.86128 2.067058,1.13688 2.29099,1.13688 0.775147,0 1.688098,-0.10335 2.118735,-0.31005 -0.08613,-0.48232 -0.223932,0 -0.223932,-0.99908 0,-2.35989 0.275608,-5.09875 1.240236,-8.95726 0.08613,-0.46509 0.775147,-2.497693 0.947402,-2.497693 0.206705,0 0.258382,1.378039 0.258382,2.928333 0,2.60105 0,6.27008 0.413412,7.33806 0.551215,1.36081 2.325441,1.8948 3.066137,1.8948 0.258382,0 1.481392,-0.27561 1.481392,-0.77514 0,-0.12058 -0.241157,-0.27561 -0.241157,-0.63735 0,-2.5666 2.29099,-11.678879 2.463245,-11.851134 0.120578,0.0689 0.103353,0.103353 0.103353,0.172255 0,9.921879 0.826823,13.556459 3.565676,13.556459 1.360814,0 2.48047,-0.39619 2.48047,-1.77422 z" />
      <path
         id="path24"
         style="font-size:35.2778px;opacity:1;stroke-width:0.264583"
         d="m 99.962222,106.47878 c 0.05168,-0.22393 0.03445,-0.37896 0.03445,-0.56844 0,-0.63734 -0.241157,-0.8785 -0.49954,-0.8785 -0.137804,0 -0.292833,0.13781 -0.344509,0.41341 -0.137804,0.7407 -0.809598,3.35898 -1.91203,3.35898 -1.06798,0 -1.240235,-2.01539 -1.240235,-3.35898 0,-1.34358 0.03445,-2.04983 0.499539,-3.30729 v -0.1378 c 0,-0.68902 -1.016304,-0.77515 -1.06798,-0.93018 -0.275608,-1.825901 0.447863,-3.961862 -1.550294,-5.064293 -1.825902,-0.327284 -1.619196,-1.033529 -3.479549,-1.033529 -3.255617,0 -4.409725,4.995391 -4.409725,10.593672 0,2.3599 0.757921,5.66719 3.031686,5.66719 0.740696,0.0517 0.740696,0.20671 1.257461,0.25838 1.94648,0 2.911107,-2.61827 3.462323,-4.20302 0.18948,1.89481 1.429716,3.10059 2.82498,3.10059 1.843128,0 3.186716,-2.60105 3.393423,-3.91019 z m -6.528461,-5.4088 c 0,0.10335 -0.516764,0.20671 -0.568441,0.99908 -0.34451,2.99723 -0.361735,7.78592 -3.031686,7.78592 -1.136882,0 -1.343588,-2.96278 -1.343588,-4.54753 0,-2.04983 0.465088,-7.544763 3.135039,-7.544763 1.550294,0 1.808676,1.94648 1.808676,2.997233 z" />
      <path
         id="path26"
         style="font-size:35.2778px;opacity:1;stroke-width:0.264583"
         d="m 109.0056,105.3419 c 0.0517,-0.18948 0.0689,-0.68902 0.0689,-0.8096 0,-0.46508 -0.2067,-0.63734 -0.48231,-0.63734 -0.18948,0 -0.41341,0.0345 -0.53399,0.56844 -0.20671,1.17134 -1.03353,5.21933 -2.46325,5.21933 -0.89572,0 -1.03352,-2.89389 -1.03352,-3.46233 0,-1.72255 0.2067,-3.42787 0.63734,-5.06429 0.0517,-0.17226 0.49954,-1.274688 0.49954,-1.705325 0,-1.171333 -2.99724,-1.050755 -3.77238,-1.188559 h -0.12058 c -0.48232,-0.08613 -0.56844,-0.103353 -0.51677,-0.637343 l 0.0345,-0.775147 c 0.0517,-0.499539 -0.10335,-0.964627 -0.60289,-0.964627 -0.67179,0 -1.860352,0.430637 -1.808675,0.999078 l 0.120578,2.084284 c 0.0689,1.102429 0.0689,1.963709 0.0689,2.635499 0,0.46509 -0.03445,0.8096 -0.03445,1.03353 v 0.24116 c -0.05168,0.84405 -0.0689,1.84312 -0.465088,3.49677 -0.05168,0.12058 -0.0689,0.29283 -0.0689,0.41341 0,0.36174 0.189481,0.43064 0.378961,0.43064 h 0.03445 c 1.016304,0 1.326364,-2.75608 1.739774,-5.75331 l 0.1378,-1.13689 c 0.0517,-0.18948 0.10336,-0.344505 0.6718,-0.344505 0.31006,0 0.8096,0.01722 0.8096,0.430635 -0.0517,1.18856 -0.24116,2.46325 -0.24116,3.70348 0,2.18764 0.37896,7.04523 3.3762,7.04523 2.82498,0 3.56567,-5.15042 3.56567,-5.82222 z" />
      <path
         id="path28"
         style="font-size:35.2778px;opacity:1;stroke-width:0.264583"
         d="m 119.80599,111.23302 c 0,-0.49954 -1.03353,-0.77515 -1.41249,-0.77515 -0.0517,0 -0.15503,0.0172 -0.24116,0.0172 -0.0517,0.0172 -0.10335,0.0172 -0.15503,0.0172 -0.0517,-0.67179 -0.0344,-1.86035 -0.0344,-2.46324 0,-1.58475 0.0517,-4.30637 0.36173,-5.08152 0.0517,-0.0861 0.34451,-0.62012 0.34451,-0.6718 0,-0.68901 -1.37804,-0.32728 -1.37804,-1.0852 0,-0.96463 0.18948,-1.446942 0.18948,-2.187638 0,-2.204863 -1.34358,-2.738853 -3.25561,-3.152264 -0.41341,-0.05168 -1.46417,-0.740696 -1.79145,-0.740696 -3.35897,0 -4.30638,5.581058 -4.30638,9.990788 0,3.61735 0.6718,6.01169 3.3073,6.20117 0.49954,0 0.74069,0.22393 1.10243,0.22393 1.39526,0 2.27376,-2.23931 2.72163,-3.15226 0,1.03353 -0.0861,2.01538 -0.15503,2.99723 v 0.0345 c -0.48232,0.36174 -1.25746,1.03353 -1.8259,1.60197 -2.20487,2.15319 -3.70348,5.66719 -3.70348,8.785 0,3.11782 3.01446,3.41065 5.42602,3.41065 2.66995,0 2.99724,-3.84128 2.99724,-7.57921 0,-1.79146 0.0172,-3.91019 -0.0344,-5.18488 l 0.0344,-0.43063 c 0,-0.13781 -0.0172,-0.20671 0.17225,-0.20671 l 0.70625,0.0689 c 0.36173,0 0.93018,-0.17225 0.93018,-0.63734 z m -4.51308,-10.90374 c 0,0.43064 -0.0345,1.03353 -0.32729,1.37804 -0.10335,0.15503 -0.18948,0.49954 -0.24115,1.87758 -0.0689,1.98093 -1.10244,5.89112 -3.03169,5.89112 -1.15411,0 -1.30914,-2.48047 -1.30914,-4.44418 0,-4.6681 1.4814,-7.544761 3.23839,-7.544761 1.34359,0 1.67088,1.825902 1.67088,2.842201 z m -0.15503,12.28178 c 0,4.80591 -0.0344,5.44325 -0.0344,5.68441 0,1.44694 -0.39619,5.21932 -2.39435,5.21932 -1.17133,0 -1.48139,-1.51584 -1.48139,-2.42879 0,-2.61828 1.72255,-7.01078 3.91019,-8.47494 z" />
      <path
         id="path30"
         style="font-size:35.2778px;opacity:1;stroke-width:0.264583"
         d="m 134.37875,106.47878 c 0.0517,-0.22393 0.0344,-0.37896 0.0344,-0.56844 0,-0.63734 -0.24116,-0.8785 -0.49954,-0.8785 -0.1378,0 -0.29283,0.13781 -0.34451,0.41341 -0.1378,0.7407 -0.8096,3.35898 -1.91203,3.35898 -1.06798,0 -1.24023,-2.01539 -1.24023,-3.35898 0,-1.34358 0.0344,-2.04983 0.49954,-3.30729 v -0.1378 c 0,-0.68902 -1.01631,-0.77515 -1.06798,-0.93018 -0.27561,-1.825901 0.44786,-3.961862 -1.5503,-5.064293 -1.8259,-0.327284 -1.61919,-1.033529 -3.47955,-1.033529 -3.25561,0 -4.40972,4.995391 -4.40972,10.593672 0,2.3599 0.75792,5.66719 3.03168,5.66719 0.7407,0.0517 0.7407,0.20671 1.25747,0.25838 1.94648,0 2.9111,-2.61827 3.46232,-4.20302 0.18948,1.89481 1.42971,3.10059 2.82498,3.10059 1.84313,0 3.18671,-2.60105 3.39342,-3.91019 z m -6.52846,-5.4088 c 0,0.10335 -0.51676,0.20671 -0.56844,0.99908 -0.34451,2.99723 -0.36174,7.78592 -3.03169,7.78592 -1.13688,0 -1.34359,-2.96278 -1.34359,-4.54753 0,-2.04983 0.46509,-7.544763 3.13504,-7.544763 1.5503,0 1.80868,1.94648 1.80868,2.997233 z" />
      <path
         id="path32"
         style="font-size:35.2778px;opacity:1;stroke-width:0.264583"
         d="m 133.99979,104.2567 c 0,4.04799 1.27468,7.20025 3.80683,7.20025 2.7044,0 3.85851,-4.97817 4.20302,-6.63181 0.0517,-0.18948 0.0345,-0.32729 0.0345,-0.46509 0,-0.7407 -0.31006,-0.8785 -0.63734,-0.8785 -0.39619,0 -0.51677,0.27561 -0.6718,0.98185 -0.49954,2.39435 -1.22301,4.68534 -2.53215,4.68534 -0.8785,0 -1.20578,-1.82591 -1.20578,-3.58291 0,-4.70256 0.22393,-8.853898 0.32728,-9.043378 0.20671,-0.34451 3.63458,-0.516765 4.04799,-0.516765 0.70625,0 0.7407,0.206706 0.84405,0.206706 0.15503,0 0.25839,-0.275608 0.25839,-0.396186 0,-1.894804 -5.11597,-0.620118 -5.11597,-1.550294 l 0.37896,-4.58198 c 0,-0.568442 -2.3599,-0.947402 -2.80776,-0.947402 -0.63734,0 -0.24116,5.770538 -0.70624,5.770538 -2.39435,0 -3.63458,0 -3.63458,0.602893 0,1.395264 3.66903,0.964627 3.66903,1.705323 -0.0861,2.10151 -0.20671,4.788685 -0.25838,7.114125 z" />
      <path
         id="path34"
         style="font-size:35.2778px;opacity:1;stroke-width:0.264583"
         d="m 149.45105,108.13243 c 0,-1.8259 -5.32268,-4.16857 -5.32268,-6.02892 0,-1.05075 0.56844,-2.256539 2.22209,-2.256539 0.67179,0 1.0163,0.809599 1.41249,0.809599 1.27469,0 1.6881,-1.843128 1.6881,-2.394344 0,-0.964627 -1.01631,-1.205784 -1.79145,-1.205784 -1.72255,0 -6.63182,1.016304 -6.63182,4.340828 0,3.60012 5.49493,5.09874 5.49493,7.04522 0,0.68902 -0.8785,0.89573 -1.22301,0.89573 -1.70532,0 -2.56659,-1.77423 -3.56567,-1.77423 -0.36174,0 -0.89573,0.22393 -0.89573,0.70625 0,1.70532 2.96279,2.15318 4.27192,2.15318 0.84405,0 4.34083,-0.0689 4.34083,-2.29099 z" />
      <path
         id="path36"
         style="font-size:35.2778px;opacity:1;stroke-width:0.264583"
         d="m 155.91061,105.2041 c 0,2.98001 0.34451,4.54753 2.46324,4.54753 2.7044,0 3.68626,-3.22117 3.82406,-5.08152 v -0.0689 c 0,-0.39619 -0.12058,-0.70625 -0.53399,-0.70625 -0.32728,0 -0.48231,0.25838 -0.53399,0.6718 -0.1378,1.37803 -0.89573,3.49677 -1.94648,3.49677 -0.68902,0 -0.8785,-1.20578 -0.8785,-2.39434 0,-2.17042 0.1378,-3.15227 0.1378,-3.60013 0,-1.24024 -0.0689,-3.066138 -1.72255,-3.066138 -1.29191,0 -2.61827,3.669028 -3.23839,5.391578 -0.0517,0.12058 -0.0517,0.20671 -0.10335,0.27561 v -7.114129 -0.03445 c 0,-0.53399 -1.60197,-0.861274 -2.01538,-0.861274 -0.36174,0 -0.49954,0.120578 -0.49954,0.465088 l -0.44786,10.473095 c 0.18948,2.48047 0.39618,2.68718 2.13596,2.68718 0.2756,0 1.13688,-0.0689 1.24023,-0.36174 0.51677,-2.37712 0.8096,-5.271 2.18764,-7.28638 z" />
      <path
         id="path38"
         style="font-size:35.2778px;opacity:1;stroke-width:0.264583"
         d="m 165.97029,93.990305 c 0,-0.137804 -0.37896,-0.602892 -0.46509,-0.740696 -0.55121,-1.291912 -1.55029,-1.653647 -2.49769,-1.653647 -0.22393,0 -1.91203,0.447863 -1.91203,0.8785 0,0.120578 0.24116,0.37896 0.36173,0.516764 0.8096,1.240236 1.77423,1.774226 2.79053,1.774226 0.18948,0 1.72255,-0.103353 1.72255,-0.775147 z m 3.66903,10.163035 v -0.18948 c 0,-0.49954 -0.17225,-0.74069 -0.53399,-0.74069 -0.34451,0 -0.55121,0.2067 -0.63734,0.53399 l -0.0689,0.36173 c -0.20671,1.11966 -0.48232,2.25654 -0.98186,2.96279 -0.27561,0.36173 -0.79237,1.05075 -1.65364,1.05075 -1.27469,0 -1.34359,-1.757 -1.34359,-3.27284 v -2.11874 c 0.0861,-1.757 0.1378,-1.9637 0.27561,-2.756075 0.18948,-0.912951 0.43063,-1.240235 0.43063,-1.378039 0,-1.119657 -2.06706,-1.119657 -2.39434,-1.119657 -0.0344,0 -1.17133,0.01723 -1.17133,0.378961 0,0.120578 0.15503,0.378961 0.2067,0.568441 0.12058,0.396186 0.10336,0.792372 0.10336,1.188559 v 3.89296 c 0,1.10243 -0.0689,1.8259 -0.0689,2.22209 0,1.24023 0.36174,2.80775 1.60197,3.63458 0.55122,0.39618 1.22301,0.60289 1.79145,0.60289 2.94556,0 4.09967,-3.08336 4.37528,-5.30545 z" />
    </g>
  </g>
</svg>
